<?xml version="1.0" standalone="no"?>
<!DOCTYPE svg PUBLIC "-//W3C//DTD SVG 20010904//EN"
 "http://www.w3.org/TR/2001/REC-SVG-20010904/DTD/svg10.dtd">
<svg version="1.0" xmlns="http://www.w3.org/2000/svg"
 width="1000.000000pt" height="1000.000000pt" viewBox="0 0 1000.000000 1000.000000"
 preserveAspectRatio="xMidYMid meet">
<metadata>
Created by potrace 1.14, written by Peter Selinger 2001-2017
</metadata>
<g transform="translate(0.000000,1000.000000) scale(0.100000,-0.100000)"
fill="#000000" stroke="none">
<path d="M5939 8106 c-2 -2 -36 -7 -74 -10 -39 -4 -82 -8 -95 -11 -14 -3 -47
-8 -75 -11 -167 -19 -429 -91 -680 -185 -89 -34 -316 -148 -433 -217 -136 -81
-427 -291 -405 -293 4 0 66 -1 138 -2 l130 -2 76 52 c415 282 919 461 1409
501 174 13 493 7 630 -13 134 -20 180 -28 215 -37 22 -6 51 -12 65 -15 141
-25 417 -121 608 -213 509 -245 918 -610 1224 -1091 73 -116 201 -365 237
-464 13 -33 26 -67 30 -75 13 -24 78 -237 100 -325 24 -96 28 -119 56 -295 35
-226 35 -562 0 -800 -23 -159 -26 -171 -51 -279 -100 -427 -293 -823 -572
-1171 -75 -93 -313 -340 -382 -395 -326 -263 -585 -412 -931 -535 -98 -35
-259 -82 -319 -94 -14 -2 -56 -11 -95 -20 -38 -8 -97 -18 -130 -21 -33 -4 -62
-9 -65 -10 -40 -24 -699 -24 -739 -1 -3 2 -31 7 -62 10 -31 4 -67 9 -80 12
-13 2 -44 9 -69 14 -334 67 -637 184 -936 362 -56 34 -126 79 -155 101 l-52
39 -139 2 c-76 1 -138 -1 -138 -5 0 -8 138 -117 223 -177 372 -260 908 -472
1307 -518 25 -3 51 -7 58 -10 58 -18 585 -27 725 -11 194 21 381 57 537 103
47 14 92 27 100 29 71 16 317 118 460 190 162 81 448 265 536 343 11 9 51 44
89 76 281 240 536 560 723 908 33 61 60 121 152 333 54 123 140 443 164 610 4
22 9 54 11 70 3 17 7 43 9 58 25 155 26 613 2 747 -3 14 -7 48 -10 75 -16 161
-89 444 -167 653 -307 819 -954 1481 -1763 1802 -66 26 -132 51 -146 54 -14 4
-34 11 -45 16 -79 35 -413 110 -560 126 -27 3 -61 8 -75 11 -30 6 -564 15
-571 9z"/>
<path d="M3209 6873 c-11 -27 -43 -102 -70 -168 -28 -66 -61 -145 -74 -175
-13 -30 -148 -354 -300 -720 -152 -366 -282 -678 -290 -695 -7 -16 -54 -129
-105 -250 -50 -121 -96 -231 -102 -245 -193 -452 -314 -756 -303 -763 16 -9
42 0 48 16 120 289 428 1022 432 1025 9 10 1606 6 1614 -4 4 -5 104 -239 220
-521 190 -457 216 -512 237 -516 14 -2 26 -2 28 2 3 5 -102 267 -163 406 -5
11 -14 34 -21 50 -7 17 -142 341 -300 720 -600 1438 -767 1841 -774 1863 -5
15 -15 22 -32 22 -20 0 -29 -9 -45 -47z m258 -548 c112 -269 208 -499 213
-510 34 -72 357 -861 354 -864 -5 -6 -1563 -6 -1567 0 -3 3 659 1600 737 1779
8 19 23 53 32 75 11 26 19 35 22 25 3 -8 97 -235 209 -505z"/>
<path d="M7538 6024 c-249 -44 -427 -205 -549 -497 -21 -50 -39 -100 -39 -109
0 -9 -3 -19 -8 -22 -4 -2 -9 129 -10 292 -2 163 -6 300 -9 305 -3 4 -12 7 -21
5 -16 -3 -17 -85 -17 -1070 0 -1044 0 -1067 19 -1072 11 -3 23 -3 27 -1 3 3 7
323 7 712 l1 708 31 90 c87 245 220 440 360 527 106 66 190 90 337 93 108 3
195 -11 284 -45 66 -25 76 -25 88 -1 9 17 3 21 -62 45 -40 14 -94 30 -122 36
-77 17 -232 19 -317 4z"/>
<path d="M4530 5997 c0 -2 8 -21 19 -43 10 -21 101 -226 201 -454 165 -374
343 -779 390 -885 22 -49 103 -234 223 -505 49 -113 90 -209 90 -215 0 -8 -84
-201 -139 -320 -7 -16 -60 -136 -118 -265 -93 -211 -102 -235 -84 -238 28 -5
48 16 76 78 13 30 32 73 42 95 10 22 32 74 50 115 18 41 45 103 61 138 16 35
29 65 29 67 0 2 13 32 29 67 16 35 131 297 256 583 125 286 235 538 245 560
10 22 37 83 60 135 23 52 49 113 59 135 10 22 40 90 66 150 26 61 116 266 200
458 141 320 151 347 130 347 -12 0 -29 -8 -37 -17 -8 -10 -113 -243 -233 -518
-119 -275 -226 -518 -236 -540 -10 -22 -43 -98 -74 -170 -81 -184 -164 -375
-180 -410 -8 -16 -49 -111 -92 -211 l-78 -181 -24 61 c-13 34 -36 88 -51 121
-26 58 -89 202 -163 370 -19 44 -44 103 -57 130 -12 28 -26 59 -31 70 -123
281 -263 601 -292 665 -23 50 -57 129 -213 490 -30 68 -60 128 -67 132 -12 7
-57 11 -57 5z"/>
</g>
</svg>
