<?xml version="1.0" standalone="no"?>
<!DOCTYPE svg PUBLIC "-//W3C//DTD SVG 20010904//EN"
 "http://www.w3.org/TR/2001/REC-SVG-20010904/DTD/svg10.dtd">
<svg version="1.0" xmlns="http://www.w3.org/2000/svg"
 width="64.000000pt" height="64.000000pt" viewBox="0 0 64.000000 64.000000"
 preserveAspectRatio="xMidYMid meet">

<g transform="translate(0.000000,64.000000) scale(0.100000,-0.100000)"
fill="#000000" stroke="none">
<path d="M20 353 c0 -31 119 -143 152 -143 5 0 6 -11 2 -24 -10 -42 6 -53 31
-22 19 24 27 27 58 21 29 -6 36 -12 39 -34 4 -35 32 -35 36 0 3 22 10 28 39
34 31 6 39 3 58 -21 25 -31 41 -20 31 22 -4 13 -3 24 2 24 33 0 152 112 152
143 0 18 -46 5 -55 -15 -16 -35 -91 -86 -153 -104 -67 -20 -162 -14 -225 14
-51 22 -117 78 -117 98 0 8 -10 14 -25 14 -14 0 -25 -3 -25 -7z"/>
</g>
</svg>
