<?xml version="1.0" standalone="no"?>
<!DOCTYPE svg PUBLIC "-//W3C//DTD SVG 20010904//EN"
 "http://www.w3.org/TR/2001/REC-SVG-20010904/DTD/svg10.dtd">
<svg version="1.0" xmlns="http://www.w3.org/2000/svg"
 width="408.000000pt" height="407.000000pt" viewBox="0 0 408.000000 407.000000"
 preserveAspectRatio="xMidYMid meet">

<g transform="translate(0.000000,407.000000) scale(0.100000,-0.100000)"
fill="#000000" stroke="none">
<path d="M620 4045 c-149 -32 -264 -97 -386 -219 -79 -80 -98 -106 -142 -196
-87 -178 -82 -78 -82 -1597 0 -1444 -1 -1398 53 -1533 42 -103 88 -171 177
-260 96 -95 165 -141 279 -181 137 -48 181 -51 941 -47 798 4 748 0 925 88
125 62 215 141 291 256 63 95 108 211 124 319 15 108 13 439 -4 478 -18 43
-68 85 -112 93 -48 9 -118 -19 -146 -59 -22 -30 -23 -44 -29 -262 -4 -136 -12
-246 -19 -270 -36 -117 -127 -230 -230 -284 -111 -59 -128 -61 -856 -61 -625
0 -665 1 -738 20 -145 37 -270 148 -329 290 l-22 55 0 1360 0 1360 23 56 c50
125 156 231 280 281 l57 23 704 3 c483 2 721 -1 758 -8 123 -26 254 -123 308
-230 56 -110 58 -121 64 -370 5 -214 8 -237 26 -262 65 -87 182 -84 249 6 19
25 21 44 24 219 4 223 -8 329 -48 438 -41 114 -93 193 -185 284 -115 115 -230
177 -384 210 -102 21 -1470 21 -1571 0z"/>
<path d="M3292 2713 c-39 -19 -61 -49 -72 -98 -16 -71 1 -99 161 -260 82 -83
149 -154 149 -158 0 -4 -411 -7 -912 -7 -867 0 -915 -1 -954 -19 -84 -38 -113
-117 -72 -199 45 -92 -37 -85 1008 -84 506 1 921 -2 924 -6 2 -4 -63 -77 -145
-162 -88 -93 -153 -168 -160 -188 -38 -112 84 -224 198 -181 15 5 166 148 335
317 333 331 333 332 309 412 -9 31 -70 95 -312 332 -165 161 -311 298 -322
305 -31 17 -96 15 -135 -4z"/>
</g>
</svg>
