<?xml version="1.0" encoding="UTF-8"?>
<svg version="1.1" viewBox="0 0 1000 623" xmlns="http://www.w3.org/2000/svg">
<g transform="translate(-.60606 .25223)">
<svg width="1e3" height="623" data-background-color="#ffffff" viewBox="0 0 396 247" xmlns="http://www.w3.org/2000/svg" xmlns:xlink="http://www.w3.org/1999/xlink">
<g transform="translate(.24 -.1)">
<svg width="395.52" height="247.2" viewBox="0 0 395.52 247.2">
<svg/>
<svg width="395.52" height="247.2" viewBox="0 0 395.52 247.2">
<g transform="translate(76.846 47.215)">
<svg width="241.83" height="152.77" viewBox="0 0 241.82733272727273 152.7696">
<svg width="241.83" height="152.77" viewBox="0 0 241.82733272727273 152.7696">
<svg width="241.83" height="152.77" viewBox="0 0 241.82733272727273 152.7696">
<svg width="241.83" height="152.77" viewBox="0 0 241.82733272727273 152.7696">
<svg width="241.83" height="152.77" viewBox="0 0 241.82733272727273 152.7696">
<svg width="241.83" height="152.77" viewBox="0 0 241.82733272727273 152.7696">
<g>
<svg width="241.83" height="152.77" data-palette-color="#b19dd0" viewBox="0.5 -35 69.6500015258789 44">
<path class="undefined-text-0" d="m15.6-35 14.6 35h-0.45q-0.22 0-0.3-0.25l-4.87-11.7h-18.45l-4.88 11.7q-0.07 0.25-0.35 0.25h-0.4l14.6-35h0.5zm-0.65 1.85-8.62 20.7h18.05l-8.63-20.7q-0.12-0.28-0.21-0.51-0.09-0.24-0.19-0.52-0.1 0.28-0.19 0.52-0.08 0.23-0.21 0.51zm36.8 8.65-14.45 32.95q-0.08 0.2-0.23 0.38-0.15 0.17-0.37 0.17h-0.35l4.2-9.43-10.6-24.07h0.35q0.2 0 0.32 0.11 0.13 0.11 0.18 0.24l9.75 22.25q0.1 0.22 0.18 0.45 0.09 0.22 0.14 0.47 0.05-0.25 0.14-0.47 0.09-0.23 0.19-0.45l9.75-22.25q0.17-0.35 0.45-0.35h0.35zm5.7 24.5h-0.6v-24.5h0.15q0.35 0 0.35 0.4l0.07 6.8q0.53-1.83 1.3-3.24 0.78-1.41 1.83-2.39 1.05-0.97 2.38-1.47 1.34-0.5 3.02-0.5 1.2 0 2.22 0.25 1.03 0.25 1.98 0.7l-0.1 0.2q-0.05 0.07-0.09 0.14-0.04 0.06-0.16 0.06-0.13 0-0.42-0.13-0.28-0.12-0.75-0.27-0.46-0.15-1.12-0.28-0.66-0.12-1.56-0.12-3.28 0-5.3 2.15-2.03 2.15-3.2 6.1v16.1z" fill="#b19dd0" data-fill-palette-color="primary"/>
</svg>
</g>
</svg>
</svg>
</svg>
</svg>
</svg>
</svg>
</g>
<path d="m244.51 0c68.262 0 123.6 55.338 123.6 123.6s-55.338 123.6-123.6 123.6c-30.402 0-58.24-10.976-79.769-29.183h11.148c19.26 14.022 42.974 22.294 68.621 22.295 64.458 0 116.71-52.254 116.71-116.71 0-64.458-52.254-116.71-116.71-116.71-25.647 0-49.361 8.272-68.621 22.295h-11.148c21.528-18.206 49.366-29.183 79.769-29.183z" fill="#b19dd0" stroke="transparent" data-fill-palette-color="tertiary"/>
</svg>
</svg>
<rect width="395.52" height="247.2" fill="none" visibility="hidden"/>
</g>
</svg>
</g>
</svg>
