<?xml version="1.0" standalone="no"?>
<!DOCTYPE svg PUBLIC "-//W3C//DTD SVG 20010904//EN"
 "http://www.w3.org/TR/2001/REC-SVG-20010904/DTD/svg10.dtd">
<svg version="1.0" xmlns="http://www.w3.org/2000/svg"
 width="64.000000pt" height="64.000000pt" viewBox="0 0 64.000000 64.000000"
 preserveAspectRatio="xMidYMid meet">

<g transform="translate(0.000000,64.000000) scale(0.100000,-0.100000)"
fill="#000000" stroke="none">
<path d="M307 514 c-4 -4 -7 -17 -7 -30 0 -17 -8 -23 -37 -29 -32 -6 -39 -3
-58 21 -24 31 -41 20 -31 -20 4 -18 0 -26 -20 -35 -43 -19 -93 -61 -115 -97
l-21 -34 21 -34 c44 -71 178 -136 282 -136 103 0 235 64 279 135 l22 36 -27
39 c-25 36 -106 100 -127 100 -5 0 -6 11 -2 24 10 42 -6 53 -31 22 -19 -24
-27 -27 -58 -21 -29 6 -36 12 -39 33 -3 26 -18 38 -31 26z m144 -121 c56 -25
119 -79 119 -103 0 -24 -62 -78 -119 -104 -65 -29 -197 -29 -262 0 -56 26
-119 80 -119 103 0 32 79 93 152 117 59 19 171 13 229 -13z"/>
<path d="M255 357 c-47 -47 -47 -87 -1 -133 46 -46 86 -46 132 0 45 45 44 69
-3 93 -24 11 -40 27 -43 43 -9 39 -44 38 -85 -3z"/>
</g>
</svg>
